<svg xmlns="http://www.w3.org/2000/svg" viewBox="0 0 876.23 877.81"><defs><style>      .cls-1 {        fill: #9356a2;      }    </style></defs><g><g id="Layer_1"><path class="cls-1" d="M875.78,365.54c-8.71-64.7-154.98-8.6-156.39-81.41-.87-44.45,101.89-110.83,46.89-151.75-21.06-15.67-35.76-5.49-56.76,3.46-32.42,13.83-87.86,60.33-114.62,17.46C573.71,119.33,620.5,2.32,552.55.08c-10.18-.35-22.64,5.18-29.69,12.44-19.92,20.54-38.93,76.54-59.17,94.12-9.49,8.23-24.79,9.5-36.71,7.03-43.1-8.91-61.72-147.71-125.38-105.81-11.53,7.59-16.44,20.03-17.1,33.4-2.13,44.26,25.1,137.48-47.08,129.52-24.65-7.28-80.89-46.25-103.2-47.22-17.66-.77-37.9,17.31-40.11,34.68-6.18,48.95,92.65,105.25,52.47,151.52-26.99,31.08-132.72,4.23-144.6,47.87-3.4,12.46-2.63,27.14,4,38.29,12.38,20.85,84.27,36.51,107.41,54.98,18.55,14.78,20,40.72,4.56,58.61-18.31,21.25-62.42,43.39-78.28,66.05-20.3,29.02.15,65.7,34.47,64.7,30.33-.91,85.58-22.24,113.15-13.77,15.3,4.71,25.33,26.87,23.7,41.92-3.75,34.64-48.74,104.4-19.84,132.99,42.52,42.08,91.88-41.52,124.34-61.57,11.15-6.9,21.87-8.48,34.91-5.8,51.78,10.66,22.55,160.52,98.68,142.21,55-13.25,22.26-165.49,102.2-141.55,20.57,6.16,59.12,57.24,80.08,70.24,27.95,17.33,64.39,2.7,64.43-31.05.04-39.3-59.12-120.42-10.37-145.36,25.56-13.08,89.7,12.25,119.99,11.9,30.2-.33,49.48-35.57,34.16-61.45-17.5-24.59-81.7-58.61-90.01-84.35-24.28-75.27,136.22-54.92,126.23-129.11M229.17,452.76c-4.29-19.74,11.15-39.87,34.48-44.94l8.85-1.93c-.35,20.9,2.45,64.64,25.58,118.95l-8.58,1.87c-23.34,5.06-45.75-6.82-50.04-26.56l-10.3-47.39ZM299.7,607.84l-13.5,2.94c-9.95,2.16-19.78-4.15-21.95-14.1l-13.33-61.36c14.14,4.93,30.2,6.12,46.42,2.59l5.76-1.26,10.7,49.24c2.16,9.95-4.13,19.78-14.1,21.95M367.59,532.42c-16.6-7.98-35.86-11.13-55.35-9.78-24.65-56.74-26.33-102.47-25.75-120.74,18.1-6.88,34.16-17.64,45.84-31.68l85.41-102.68c-19.07,43.8-23.94,105.87-9.74,171.17,14.2,65.28,44.4,119.74,79.92,151.68l-120.34-57.96ZM499.77,418.74c2.7,12.4,8.27,22.8,14.88,29.15-26.8,10.68-52.74,24.69-77.34,41.67.5,1.31.97,2.69,1.51,3.96-.52-1.29-1.04-2.61-1.56-3.92.02,0,.04-.02.06-.04-6.59-16.77-12.13-34.72-16.27-53.71-4.13-18.97-6.53-37.63-7.52-55.62h-.06c-.08-1.37-.14-2.72-.19-4.08.04,1.33.17,2.72.25,4.08,29.44,5.25,58.85,7.23,87.67,5.8-3.36,8.54-4.11,20.3-1.43,32.71M573.21,609.11c-47.27,10.28-99.4-35.35-131.1-107.88-.02.02-.04.02-.04.04-.43-.97-.83-1.91-1.26-2.88.43.97.87,1.89,1.29,2.84,25.85-18.03,53.19-32.73,81.53-43.55,2.51-.95,4.96-1.95,7.34-3.03.15-.08.25-.21.39-.29.12-.02.27-.02.39-.04,12.77-2.78,19.18-23.22,14.32-45.65-4.89-22.43-19.2-38.35-31.97-35.59-.17.04-.31.12-.46.15-.21-.02-.41-.14-.62-.14-2.51.02-5.1.12-7.71.29-30.29,1.93-61.28-.1-92.29-5.78.02,1.04.04,2.09.06,3.13-.02-1.04-.06-2.09-.06-3.13-1.27-79.15,27.26-142.29,74.53-152.56,60.26-13.1,128.51,64.62,152.14,173.27,23.63,108.63-6.2,207.68-66.48,220.78"></path></g></g></svg>