<svg xmlns="http://www.w3.org/2000/svg" viewBox="0 0 951.35 946.16"><defs><style>      .cls-1 {        fill: #3a4ca0;      }    </style></defs><g><g id="Layer_1"><path class="cls-1" d="M445.48,453.76l121.21-117.69c-24.17-16-53.11-25.35-84.19-25.35-84.33,0-152.93,68.6-152.93,152.95s68.6,152.93,152.93,152.93,152.95-68.6,152.95-152.93c0-32.11-9.95-61.9-26.91-86.53l-122.19,118.66-40.86-42.04Z"></path><path class="cls-1" d="M486.78,465.85l206.56-200.57,39.95.58c.43,0,.83-.04,1.22-.15,1.24-.31,2.39-.97,3.34-1.87l51.62-50.75c.85-.83,1.45-1.82,1.82-2.86.48-1.37.52-2.88.06-4.31-.73-2.26-2.68-3.9-5.08-4.25l-34.66-5.04c-.39-.06-.75-.06-1.12-.02.02-.29,0-.58-.04-.85l-4.48-35.08c-.31-2.41-1.89-4.39-4.17-5.16-2.47-.85-5.22-.17-7.19,1.78l-51.58,50.69c-.98.97-1.66,2.18-2.01,3.48-.1.41-.13.81-.13,1.24l.97,41.07-206.41,200.44,11.34,11.65Z"></path><path class="cls-1" d="M951.35,417.85l-54.91-86.72-6.55-102.43-85.43-56.9-47.66-90.9-101.17-17.23L575.13,0l-99.46,25.42L376.24,0l-80.52,63.68-101.17,17.23-47.66,90.9-85.43,56.9-6.55,102.43L0,417.85l35.68,96.25-14.9,101.56,71.73,73.41,27.7,98.82,95.4,37.9,65.51,79.02,102.57-4.19,91.98,45.54,92-45.54,102.55,4.19,65.51-79.02,95.4-37.9,27.7-98.82,71.73-73.41-14.88-101.56,35.66-96.25ZM482.5,798.48c-184.61,0-334.82-150.21-334.82-334.82S297.88,128.84,482.5,128.84c70.63,0,136.22,22,190.29,59.48l46.96-46.15c7.65-7.59,18.74-10.18,28.88-6.72,9.97,3.44,17,12.06,18.33,22.51l2.55,19.86,19.8,2.88c10.43,1.55,18.91,8.69,22.16,18.64,1.87,5.8,1.8,12.11-.19,17.83-1.45,4.15-3.86,7.96-7.01,11.05l-46.23,45.44c37.36,54.02,59.29,119.49,59.29,190,0,184.61-150.21,334.82-334.84,334.82"></path><path class="cls-1" d="M701.79,286.58l-58.4,56.7c25.19,33.58,40.15,75.27,40.15,120.38,0,110.83-90.18,201.02-201.04,201.02s-201.02-90.18-201.02-201.02,90.18-201.04,201.02-201.04c44.63,0,85.89,14.64,119.3,39.35l58.65-56.97-.12-4.87c-48.84-38.93-110.66-62.25-177.83-62.25-157.57,0-285.75,128.18-285.75,285.77s128.18,285.75,285.75,285.75,285.77-128.18,285.77-285.75c0-66.81-23.05-128.3-61.59-177l-4.89-.08Z"></path></g></g></svg>