<svg xmlns="http://www.w3.org/2000/svg" viewBox="0 0 990.84 718.04"><defs><style>      .cls-1 {        fill: #f26523;      }    </style></defs><g><g id="Layer_1"><polygon class="cls-1" points="170.74 635 820.11 635 829.93 599.22 160.92 599.22 170.74 635"></polygon><path class="cls-1" d="M495.42,176.73c25.83,0,46.85-21.02,46.85-46.85s-21.02-46.85-46.85-46.85-46.85,21.02-46.85,46.85,21.02,46.85,46.85,46.85"></path><path class="cls-1" d="M495.42,219.02c-175.55,0-319.64,137.42-330.3,310.34h660.6c-10.66-172.93-154.75-310.34-330.3-310.34"></path><path class="cls-1" d="M914.4,516.19h-6.4c-13.5-166.01-126.69-308.86-285.38-360.19,1.78-8.6,2.68-17.35,2.68-26.12C625.3,58.27,567.04,0,495.42,0s-129.88,58.27-129.88,129.88c0,8.77.91,17.52,2.68,26.12-158.71,51.35-271.88,194.18-285.36,360.19h-6.41c-42.15,0-76.45,34.29-76.45,76.45s34.29,76.43,76.45,76.43h17.54l13.43,48.97h776.01l13.43-48.97h17.54c42.15,0,76.45-34.29,76.45-76.43s-34.29-76.45-76.45-76.45M914.4,627.22h-49.46l-13.43,48.96H139.33l-13.43-48.96h-49.46c-19.09,0-34.6-15.51-34.6-34.58s15.51-34.6,34.6-34.6h46.87v-8.09c0-181.56,130.73-333.16,303-365.63-11.82-14.99-18.91-33.89-18.91-54.42,0-48.55,39.49-88.04,88.02-88.04s88.02,39.49,88.02,88.04c0,20.54-7.07,39.43-18.91,54.42,172.27,32.48,303,184.07,303,365.63v8.09h46.87c19.07,0,34.58,15.53,34.58,34.6s-15.51,34.58-34.58,34.58"></path></g></g></svg>